<svg id="shortn-logo-main" data-name="Layer 1" xmlns="http://www.w3.org/2000/svg" viewBox="0 0 629.17 378.54">
<style type="text/css">
      .cls-1{
        fill: white;
        }
      </style>
    <defs/>
    <title>
        shortn logo
    </title>
    <path class="cls-1" d="M106.37,176.89c.79-30.94,6.4-73.23,47.66-58.87,37.25,13,49.31,49.22,49.52,85.94q.24,25.5.47,51-19-4.27-38-8.59-.17-26.41-.35-52.84c-.1-13.42-3.84-20.94-11.19-23.24l-.22-.07c-7.27-2.16-10.85,3.31-10.79,17.13q.08,16.71.16,33.43c.47,24.06,16.28,46.81,29.36,65.51,19,27.19,32.2,59.53,32.13,93.39q.19,22.18.41,44.37c.52,33.57-9.56,69.69-49.17,69.64-42.48,0-49.16-41.15-50-75.47V362.39l37.91,4.11q.12,27,.25,53.95c.06,13.83,3.89,20.53,11.49,20.84s11.24-6,11.14-19.51l-.27-41.44c-.43-24.27-16.42-46.85-29.54-65.74-20.39-29.35-31.3-66-31-102Z" transform="translate(-106.36 -115.14)"/>
    <path class="cls-1" d="M212.52,142.22q19.14,6.3,38.32,12.53.87,69.27,1.54,138.55l22.84,4.41q-.71-67.78-1.51-135.57,19.44,6.26,38.91,12.43c1.22,104.93,2,209.86,3.23,314.78l-38.55-.13q-.85-67.8-1.51-135.61L253,350.55q.72,69.3,1.54,138.6L216,489C214.63,373.42,213.84,257.82,212.52,142.22Z" transform="translate(-106.36 -115.14)"/>
    <path class="cls-1" d="M425.33,436.58c.42,32-15.62,57.38-49.78,57.09-36.46-.31-50.87-29.26-50.56-62.73q-1-97.4-1.85-194.8c.89-33.5,12.55-58.51,50.16-46.5,33.71,10.76,51.43,37.75,51.39,72.86Q425,349.53,425.33,436.58Zm-39.9-184.17c-.07-10.85-4-17.17-11.67-19.39l-.23-.06c-7.62-2.11-11.38,2.22-11.29,13.43q.75,93.38,1.44,186.75c.1,11.21,3.93,16.74,11.52,17s11.46-4.81,11.39-15.76Q386,343.42,385.43,252.41Z" transform="translate(-106.36 -115.14)"/>
    <path class="cls-1" d="M434.48,212.41q25.86,7.86,51.77,15.6c31.13,8.63,47.57,34.06,47.19,65.69l-.18,37.23c.23,17.22-6.82,37.55-25.68,41.82,11.47,39.37,23.37,78.58,36.8,117.34l-42-.13c-9.6-37.52-18.11-75.28-26.35-113.12l-2.11-.27,0,113.3-38.55-.12Q434.85,351.08,434.48,212.41Zm39.44,51.8q0,35.31,0,70.62l4.7.85q6.33,1.14,8.21.66,7.4-2.08,7.41-13.1,0-19.51.08-39c0-9.87-3.82-15.66-11.53-17.67Z" transform="translate(-106.36 -115.14)"/>
    <path class="cls-1" d="M634.93,271.19l-.33,34q-15.35-3.78-30.68-7.62-.88,96.36-1.73,192.73l-38.55-.11q.78-101.2,1.45-202.4-15.54-3.94-31.06-7.94.09-18.8.2-37.61Q584.53,256.91,634.93,271.19Z" transform="translate(-106.36 -115.14)"/>
    <path class="cls-1" d="M637.74,272q18.84,5.31,37.69,10.54c8.12,35.34,16.19,70.68,24.59,106l.57-99q17.46,4.78,34.93,9.51V490.61l-38-.09Q685,440.8,673.75,390.81q-.4,49.82-.81,99.64l-37.26-.1Q636.75,381.17,637.74,272Z" transform="translate(-106.36 -115.14)"/>
</svg>
